<svg width="67" height="53" viewBox="0 0 67 53" fill="none" xmlns="http://www.w3.org/2000/svg">
<g clip-path="url(#clip0_1_625)">
<path d="M13.8858 41.0783C15.9379 27.4227 27.0537 16.302 38.3594 16.304C38.4251 16.6525 38.5721 17.0921 38.4645 17.4301C36.6349 23.1752 39.0587 27.6299 42.9921 31.574C46.0196 34.6875 49.517 37.2268 53.6997 38.516C54.8969 38.8475 56.0942 39.1791 57.3939 39.2586C62.1541 39.6356 64.6613 37.0326 64.4299 32.2813C64.2773 29.0851 62.8751 26.4154 60.9372 23.9714C57.6313 19.7212 53.3041 16.5283 48.2209 14.3227C47.2021 13.9159 46.1834 13.5091 44.7419 12.9043C49.6854 7.43558 56.37 6.20763 62.7657 4.01457C61.6393 3.94573 60.5234 3.70527 59.3866 3.80805C53.5028 4.74042 47.9997 6.55737 43.5786 10.5937C42.2921 11.721 41.1133 12.5102 39.2072 12.3937C31.8372 12.0294 25.6594 14.9249 20.477 20.0344C16.5914 23.8451 13.6223 28.3147 11.5747 33.3575C11.0628 34.6182 10.5509 35.8788 9.64526 37.8907C7.2767 33.9561 5.22324 30.5576 3.16979 27.1591C2.90461 27.229 2.63419 27.3848 2.36901 27.4547C2.24041 28.1359 1.92803 28.9781 2.15125 29.5947C3.18596 32.5864 4.22066 35.5781 5.43389 38.4946C6.57622 41.1483 7.89708 43.7269 9.03941 46.3806C10.187 48.9486 11.5366 49.634 13.3087 47.6751C16.383 44.3316 19.1264 40.7095 21.9565 37.0927C22.3345 36.599 22.0456 35.6339 22.0062 34.8563C21.1293 34.975 20.0081 34.8203 19.4568 35.3034C17.5219 37.0801 15.9283 38.9637 13.8858 41.0783ZM41.9223 16.3494C50.3243 18.3272 56.668 22.6769 60.4572 30.402C61.224 32.0853 61.7913 34.1872 60.1531 35.379C59.0609 36.1736 56.9709 36.2181 55.5085 35.9565C49.9291 34.7541 45.7857 31.4002 42.4036 26.973C40.0745 23.8161 39.494 20.5076 41.9223 16.3494Z" fill="#189CAB"/>
</g>
<defs>
<clipPath id="clip0_1_625">
<rect width="62.5869" height="48.1438" fill="white" transform="matrix(-0.998138 -0.0610034 -0.0610034 0.998138 66.2363 4.14062)"/>
</clipPath>
</defs>
</svg>
